<svg width="155" height="84" viewBox="0 0 155 84" fill="none" xmlns="http://www.w3.org/2000/svg">
        <path
            d="M2.64205 71V36.0909H11.0795V50.1023H24.8352V36.0909H33.2557V71H24.8352V56.9716H11.0795V71H2.64205ZM45.929 71.4432C44.2585 71.4432 42.7756 71.1648 41.4801 70.608C40.196 70.0398 39.179 69.1875 38.429 68.0511C37.6903 66.9034 37.321 65.4659 37.321 63.7386C37.321 62.2841 37.5767 61.0568 38.0881 60.0568C38.5994 59.0568 39.304 58.2443 40.2017 57.6193C41.0994 56.9943 42.1335 56.5227 43.304 56.2045C44.4744 55.875 45.7244 55.6534 47.054 55.5398C48.5426 55.4034 49.7415 55.2614 50.6506 55.1136C51.5597 54.9545 52.2188 54.733 52.6278 54.4489C53.0483 54.1534 53.2585 53.7386 53.2585 53.2045V53.1193C53.2585 52.2443 52.9574 51.5682 52.3551 51.0909C51.7528 50.6136 50.9403 50.375 49.9176 50.375C48.8153 50.375 47.929 50.6136 47.2585 51.0909C46.5881 51.5682 46.1619 52.2273 45.9801 53.0682L38.2926 52.7955C38.5199 51.2045 39.1051 49.7841 40.0483 48.5341C41.0028 47.2727 42.3097 46.2841 43.9688 45.5682C45.6392 44.8409 47.6449 44.4773 49.9858 44.4773C51.6563 44.4773 53.196 44.6761 54.6051 45.0739C56.0142 45.4602 57.2415 46.0284 58.2869 46.7784C59.3324 47.517 60.1392 48.4261 60.7074 49.5057C61.2869 50.5852 61.5767 51.8182 61.5767 53.2045V71H53.7358V67.3523H53.5312C53.0653 68.2386 52.4688 68.9886 51.7415 69.6023C51.0256 70.2159 50.179 70.6761 49.2017 70.983C48.2358 71.2898 47.1449 71.4432 45.929 71.4432ZM48.5028 65.9886C49.4006 65.9886 50.2074 65.8068 50.9233 65.4432C51.6506 65.0795 52.2301 64.5795 52.6619 63.9432C53.0938 63.2955 53.3097 62.5455 53.3097 61.6932V59.2045C53.071 59.3295 52.7813 59.4432 52.4403 59.5455C52.1108 59.6477 51.7472 59.7443 51.3494 59.8352C50.9517 59.9261 50.5426 60.0057 50.1222 60.0739C49.7017 60.142 49.2983 60.2045 48.9119 60.2614C48.1278 60.3864 47.4574 60.5795 46.9006 60.8409C46.3551 61.1023 45.9347 61.4432 45.6392 61.8636C45.3551 62.2727 45.2131 62.7614 45.2131 63.3295C45.2131 64.1932 45.5199 64.8523 46.1335 65.3068C46.7585 65.7614 47.5483 65.9886 48.5028 65.9886ZM66.6733 71V36.0909H75.0085V49.3011H75.179C75.5199 48.5057 76.0028 47.7386 76.6278 47C77.2642 46.2614 78.071 45.6591 79.0483 45.1932C80.0369 44.7159 81.2188 44.4773 82.5938 44.4773C84.4119 44.4773 86.1108 44.9545 87.6903 45.9091C89.2812 46.8636 90.5653 48.3352 91.5426 50.3239C92.5199 52.3125 93.0085 54.8466 93.0085 57.9261C93.0085 60.892 92.5369 63.375 91.5938 65.375C90.6619 67.375 89.4006 68.875 87.8097 69.875C86.2301 70.875 84.4744 71.375 82.5426 71.375C81.2244 71.375 80.0824 71.1591 79.1165 70.7273C78.1506 70.2955 77.3381 69.7273 76.679 69.0227C76.0312 68.3182 75.5313 67.5625 75.179 66.7557H74.9233V71H66.6733ZM74.8381 57.9091C74.8381 59.3182 75.0256 60.5455 75.4006 61.5909C75.7869 62.6364 76.3381 63.4489 77.054 64.0284C77.7812 64.5966 78.6506 64.8807 79.6619 64.8807C80.6847 64.8807 81.554 64.5966 82.2699 64.0284C82.9858 63.4489 83.5256 62.6364 83.8892 61.5909C84.2642 60.5455 84.4517 59.3182 84.4517 57.9091C84.4517 56.5 84.2642 55.2784 83.8892 54.2443C83.5256 53.2102 82.9858 52.4091 82.2699 51.8409C81.5653 51.2727 80.696 50.9886 79.6619 50.9886C78.6392 50.9886 77.7699 51.267 77.054 51.8239C76.3381 52.3807 75.7869 53.1761 75.4006 54.2102C75.0256 55.2443 74.8381 56.4773 74.8381 57.9091ZM97.3764 71V44.8182H105.712V71H97.3764ZM101.553 41.767C100.382 41.767 99.3764 41.3807 98.5355 40.608C97.6946 39.8239 97.2741 38.8807 97.2741 37.7784C97.2741 36.6875 97.6946 35.7557 98.5355 34.983C99.3764 34.1989 100.382 33.8068 101.553 33.8068C102.734 33.8068 103.74 34.1989 104.57 34.983C105.411 35.7557 105.831 36.6875 105.831 37.7784C105.831 38.8807 105.411 39.8239 104.57 40.608C103.74 41.3807 102.734 41.767 101.553 41.767ZM125.795 44.8182V50.9545H109.278V44.8182H125.795ZM112.739 38.5455H121.074V62.767C121.074 63.2784 121.153 63.6932 121.312 64.0114C121.483 64.3182 121.727 64.5398 122.045 64.6761C122.364 64.8011 122.744 64.8636 123.188 64.8636C123.506 64.8636 123.841 64.8352 124.193 64.7784C124.557 64.7102 124.83 64.6534 125.011 64.608L126.273 70.625C125.875 70.7386 125.313 70.8807 124.585 71.0511C123.869 71.2216 123.011 71.3295 122.011 71.375C120.057 71.4659 118.381 71.2386 116.983 70.6932C115.597 70.1364 114.534 69.2727 113.795 68.1023C113.068 66.9318 112.716 65.4602 112.739 63.6875V38.5455ZM152.578 52.8125L144.925 53.017C144.845 52.4716 144.629 51.9886 144.277 51.5682C143.925 51.1364 143.464 50.8011 142.896 50.5625C142.339 50.3125 141.692 50.1875 140.953 50.1875C139.987 50.1875 139.163 50.3807 138.482 50.767C137.811 51.1534 137.482 51.6761 137.493 52.3352C137.482 52.8466 137.686 53.2898 138.107 53.6648C138.538 54.0398 139.305 54.3409 140.408 54.5682L145.453 55.5227C148.067 56.0227 150.01 56.8523 151.283 58.0114C152.567 59.1705 153.214 60.7045 153.226 62.6136C153.214 64.4091 152.68 65.9716 151.624 67.3011C150.578 68.6307 149.146 69.6648 147.328 70.4034C145.51 71.1307 143.43 71.4943 141.089 71.4943C137.351 71.4943 134.402 70.7273 132.243 69.1932C130.095 67.6477 128.868 65.5795 128.561 62.9886L136.794 62.7841C136.976 63.7386 137.447 64.4659 138.209 64.9659C138.97 65.4659 139.942 65.7159 141.124 65.7159C142.192 65.7159 143.061 65.517 143.732 65.1193C144.402 64.7216 144.743 64.1932 144.754 63.5341C144.743 62.9432 144.482 62.4716 143.97 62.1193C143.459 61.7557 142.658 61.4716 141.567 61.267L136.999 60.3977C134.374 59.9205 132.419 59.0398 131.135 57.7557C129.851 56.4602 129.214 54.8125 129.226 52.8125C129.214 51.0625 129.68 49.5682 130.624 48.3295C131.567 47.0795 132.908 46.125 134.646 45.4659C136.385 44.8068 138.436 44.4773 140.8 44.4773C144.345 44.4773 147.141 45.2216 149.186 46.7102C151.232 48.1875 152.362 50.2216 152.578 52.8125Z"
            fill="white" />
        <rect x="0.5" y="0.5" width="15" height="15" rx="3.5" fill="#18181B" stroke="#27272A" />
        <rect x="20.5" y="0.5" width="15" height="15" rx="3.5" fill="#4C1D95" stroke="#6D28D9" />
        <rect x="40.5" y="0.5" width="15" height="15" rx="3.5" fill="#5B21B6" stroke="#7C3AED" />
        <rect x="60.5" y="0.5" width="15" height="15" rx="3.5" fill="#6D28D9" stroke="#8B5CF6" />
        <rect x="80.5" y="0.5" width="15" height="15" rx="3.5" fill="#7C3AED" stroke="#A78BFA" />
        <rect x="100.5" y="0.5" width="15" height="15" rx="3.5" fill="#8B5CF6" stroke="#C4B5FD" />
</svg>